<svg version="1.0" xmlns="http://www.w3.org/2000/svg"
 width="2112" height="2093" viewBox="0 0 2112.000000 2093.000000"
 preserveAspectRatio="xMidYMid meet">
<g transform="translate(0.000000,2093.000000) scale(0.100000,-0.100000)"
fill="#ffffff" stroke="none">
<path d="M0 12000 l0 -8930 2445 0 2445 0 0 25 c0 14 -4 25 -10 25 -5 0 -10 7
-10 16 0 8 -5 12 -10 9 -6 -3 -13 1 -17 10 -3 10 -17 29 -29 43 -13 14 -24 29
-24 33 0 4 -11 20 -25 35 -14 15 -25 33 -25 39 0 7 -7 15 -15 19 -8 3 -15 12
-15 21 0 8 -4 15 -10 15 -5 0 -10 9 -10 21 0 11 -4 18 -9 14 -5 -3 -12 4 -16
15 -3 11 -11 20 -16 20 -5 0 -9 9 -9 19 0 10 -7 21 -15 25 -8 3 -15 12 -15 21
0 8 -4 15 -10 15 -5 0 -10 9 -10 19 0 10 -7 21 -15 25 -8 3 -15 12 -15 21 0 8
-4 15 -10 15 -5 0 -10 9 -10 20 0 11 -7 20 -15 20 -8 0 -15 9 -15 20 0 11 -4
20 -10 20 -5 0 -10 9 -10 19 0 10 -7 21 -15 25 -8 3 -15 12 -15 21 0 8 -4 15
-10 15 -5 0 -10 6 -10 14 0 7 -7 19 -15 26 -8 7 -15 20 -15 30 0 10 -7 20 -15
24 -8 3 -15 12 -15 21 0 8 -4 15 -10 15 -5 0 -10 12 -10 26 0 14 -4 22 -10 19
-5 -3 -12 6 -16 20 -3 14 -10 25 -15 25 -5 0 -9 11 -9 25 0 14 -5 24 -12 22
-7 -1 -14 8 -16 21 -2 12 -8 22 -13 22 -5 0 -9 11 -9 24 0 13 -7 26 -15 30 -8
3 -15 15 -15 26 0 11 -4 20 -10 20 -5 0 -10 11 -10 25 0 14 -5 24 -12 22 -7
-1 -14 8 -16 21 -2 12 -8 22 -13 22 -5 0 -9 13 -9 30 0 18 -5 29 -12 27 -7 -1
-14 8 -16 20 -2 13 -8 23 -13 23 -5 0 -9 13 -9 30 0 19 -5 29 -12 27 -8 -1
-14 10 -16 26 -2 15 -7 27 -11 27 -5 0 -11 14 -14 30 l-7 30 -1265 0 -1265 0
2 7475 3 7475 4120 0 c2835 -1 4142 -4 4190 -12 39 -5 166 -12 283 -15 130 -2
210 -8 207 -14 -4 -5 41 -9 114 -9 121 0 155 -5 145 -21 -3 -5 43 -9 105 -9
67 0 111 -4 111 -10 0 -6 31 -10 74 -10 90 0 143 -9 124 -21 -7 -5 32 -9 94
-9 60 0 110 -4 113 -10 3 -5 37 -10 75 -10 51 0 69 -4 74 -15 4 -11 22 -15 76
-15 40 0 70 -4 70 -10 0 -5 21 -10 48 -11 44 0 99 -15 77 -20 -5 -1 24 -6 65
-10 158 -17 179 -21 191 -35 7 -8 30 -14 55 -14 23 0 45 -4 48 -9 3 -4 27 -11
53 -14 26 -3 49 -10 51 -16 2 -6 26 -11 52 -11 27 0 51 -4 54 -9 3 -5 31 -12
61 -16 30 -3 55 -11 55 -16 0 -5 18 -9 39 -9 27 0 41 -5 45 -16 4 -12 15 -15
37 -12 20 3 33 0 36 -9 3 -7 17 -13 32 -13 38 0 72 -11 65 -21 -3 -5 18 -9 45
-9 28 0 51 -4 51 -10 0 -5 11 -10 24 -10 33 0 57 -10 50 -21 -3 -5 11 -9 30
-9 20 0 36 -4 36 -10 0 -5 16 -10 35 -10 24 0 35 -5 35 -15 0 -11 11 -15 39
-15 22 0 43 -4 46 -10 3 -5 19 -10 35 -10 15 0 30 -7 34 -15 3 -9 19 -15 41
-15 19 0 35 -4 35 -10 0 -5 11 -10 25 -10 16 0 25 -6 25 -15 0 -11 11 -15 40
-15 22 0 40 -4 40 -10 0 -5 11 -10 24 -10 14 0 31 -7 40 -15 8 -8 24 -15 35
-15 12 0 21 -4 21 -10 0 -5 11 -10 25 -10 16 0 25 -6 25 -15 0 -8 8 -15 18
-15 25 0 112 -32 112 -42 0 -4 11 -8 24 -8 13 0 27 -7 30 -16 4 -10 13 -13 26
-9 14 5 20 2 20 -9 0 -9 8 -16 19 -16 28 0 52 -11 45 -21 -3 -5 11 -9 30 -9
20 0 36 -4 36 -10 0 -5 11 -10 25 -10 16 0 25 -6 25 -15 0 -9 9 -15 25 -15 14
0 25 -4 25 -10 0 -5 11 -12 25 -16 14 -3 22 -10 19 -15 -3 -5 9 -9 25 -9 17 0
31 -4 31 -9 0 -5 11 -12 25 -15 14 -4 23 -11 20 -16 -3 -6 3 -10 14 -10 12 0
21 -4 21 -10 0 -5 11 -10 25 -10 16 0 25 -6 25 -15 0 -9 9 -15 24 -15 13 0 26
-5 28 -11 2 -5 11 -11 19 -12 9 -2 24 -11 33 -20 10 -9 22 -15 27 -12 5 4 9 1
9 -4 0 -6 7 -11 15 -11 8 0 15 -7 15 -15 0 -9 9 -15 25 -15 14 0 25 -4 25 -9
0 -5 11 -12 25 -15 14 -4 25 -11 25 -16 0 -6 7 -10 15 -10 8 0 15 -4 15 -10 0
-5 11 -12 25 -16 14 -3 25 -10 25 -14 0 -4 8 -10 18 -14 24 -8 52 -26 96 -63
8 -7 20 -13 26 -13 5 0 10 -4 10 -9 0 -5 11 -12 25 -15 14 -4 25 -11 25 -16 0
-6 5 -10 11 -10 6 0 17 -6 24 -12 33 -30 45 -38 55 -38 5 0 10 -4 10 -10 0 -5
7 -10 15 -10 8 0 15 -4 15 -9 0 -5 10 -13 23 -17 12 -4 36 -22 54 -41 18 -18
35 -32 37 -31 3 2 15 -5 26 -14 11 -10 23 -18 26 -18 10 0 34 -28 34 -40 0 -6
4 -9 8 -6 5 3 18 -4 30 -14 12 -11 25 -20 29 -20 5 0 15 -9 23 -20 8 -11 20
-20 27 -20 7 0 13 -7 13 -15 0 -8 11 -17 25 -21 14 -3 25 -9 25 -13 0 -4 11
-14 25 -21 14 -7 25 -19 25 -27 0 -7 5 -13 11 -13 6 0 30 -20 54 -44 24 -24
47 -41 50 -38 3 3 5 0 5 -6 0 -7 7 -12 15 -12 8 0 15 -7 15 -15 0 -8 5 -15 11
-15 14 0 39 -25 39 -39 0 -6 5 -11 11 -11 14 0 39 -25 39 -39 0 -6 4 -10 8 -8
5 1 25 -15 45 -35 20 -21 40 -38 45 -38 5 0 15 -11 22 -25 7 -14 19 -25 27
-25 7 0 13 -4 13 -9 0 -5 27 -36 60 -69 33 -34 60 -66 60 -72 0 -5 5 -10 11
-10 16 0 39 -26 39 -45 0 -9 4 -14 8 -11 8 5 42 -28 42 -40 0 -3 11 -15 25
-28 14 -13 25 -28 25 -35 0 -6 7 -11 15 -11 8 0 15 -7 15 -15 0 -8 7 -15 15
-15 8 0 15 -7 15 -15 0 -8 5 -15 10 -15 6 0 10 -5 10 -10 0 -6 11 -21 25 -34
14 -13 25 -26 25 -30 0 -4 11 -17 25 -30 14 -13 25 -31 25 -40 0 -10 4 -15 9
-11 5 3 12 -4 16 -15 3 -11 11 -20 16 -20 5 0 9 -5 9 -10 0 -6 11 -21 25 -34
14 -13 25 -31 25 -40 0 -9 7 -16 15 -16 8 0 15 -7 15 -15 0 -8 5 -15 10 -15 6
0 10 -9 10 -21 0 -12 4 -17 11 -14 6 4 13 -2 16 -14 3 -12 9 -21 14 -21 5 0 9
-6 9 -14 0 -8 7 -16 15 -20 8 -3 15 -10 15 -16 0 -6 6 -18 13 -25 29 -33 37
-45 37 -54 0 -6 11 -22 25 -37 14 -15 25 -36 25 -46 0 -11 4 -17 9 -13 5 3 12
-4 16 -15 3 -11 11 -20 16 -20 5 0 9 -12 9 -26 0 -15 4 -23 11 -19 6 4 13 -2
16 -14 3 -12 9 -21 14 -21 5 0 9 -12 9 -26 0 -14 4 -23 9 -19 10 5 41 -48 41
-70 0 -7 7 -15 15 -19 8 -3 15 -12 15 -21 0 -8 5 -15 10 -15 6 0 10 -11 10
-25 0 -14 5 -24 12 -22 7 1 14 -8 16 -20 2 -13 8 -23 13 -23 5 0 9 -9 9 -19 0
-10 7 -21 15 -25 8 -3 15 -14 15 -25 0 -10 7 -22 16 -25 8 -3 13 -10 10 -15
-3 -5 1 -14 9 -21 8 -7 15 -24 15 -38 0 -14 3 -22 7 -18 7 7 43 -59 43 -80 0
-6 7 -14 15 -18 8 -3 15 -15 15 -26 0 -11 5 -20 10 -20 6 0 10 -14 10 -31 0
-18 4 -28 10 -24 6 4 13 -7 16 -24 4 -17 10 -31 15 -31 5 0 9 -11 9 -24 0 -13
7 -26 15 -30 8 -3 15 -15 15 -26 0 -11 5 -20 10 -20 6 0 10 -13 10 -30 0 -20
5 -30 15 -30 10 0 15 -10 15 -30 0 -16 5 -30 10 -30 6 0 10 -13 10 -30 0 -20
5 -30 15 -30 9 0 15 -9 15 -25 0 -14 5 -25 10 -25 6 0 10 -13 10 -29 0 -16 6
-31 15 -35 9 -3 15 -18 15 -36 0 -16 4 -30 9 -30 5 0 12 -13 16 -30 4 -16 11
-32 16 -35 5 -4 9 -17 9 -31 0 -14 7 -32 15 -40 8 -9 15 -24 15 -34 0 -10 5
-22 10 -25 5 -3 10 -22 10 -41 0 -21 4 -33 10 -29 5 3 12 -12 16 -35 4 -22 10
-40 15 -40 5 0 9 -18 9 -41 0 -23 4 -38 10 -34 5 3 12 -7 15 -22 4 -15 10 -36
16 -45 5 -10 9 -34 9 -53 0 -20 4 -34 9 -31 10 7 21 -27 21 -66 0 -16 5 -28
10 -28 6 0 10 -18 10 -39 0 -25 5 -41 15 -45 9 -3 15 -19 15 -41 0 -19 5 -35
10 -35 6 0 10 -22 10 -50 0 -35 4 -49 13 -47 8 1 13 -15 15 -50 2 -29 7 -53
13 -53 5 0 9 -22 9 -50 0 -38 4 -50 15 -50 11 0 15 -12 15 -51 0 -27 4 -48 9
-45 11 7 21 -27 21 -71 0 -18 5 -33 10 -33 6 0 10 -28 10 -64 0 -37 5 -66 11
-68 6 -2 13 -32 16 -66 3 -34 10 -65 14 -68 5 -3 9 -30 9 -60 0 -36 5 -61 15
-70 10 -10 15 -35 15 -69 0 -30 5 -57 10 -60 6 -3 10 -48 11 -98 0 -54 4 -84
8 -72 10 24 21 -50 21 -136 0 -32 5 -61 10 -64 6 -3 10 -50 10 -106 0 -56 4
-98 9 -95 14 9 21 -32 21 -131 0 -55 4 -93 10 -93 6 0 10 -70 11 -187 1 -104
4 -174 8 -158 15 64 21 -151 21 -701 0 -554 -6 -775 -21 -724 -4 14 -7 -52 -8
-147 -1 -103 -5 -174 -11 -178 -6 -3 -10 -50 -10 -105 0 -101 -6 -134 -21
-124 -5 3 -9 -39 -9 -95 0 -56 -4 -103 -10 -106 -5 -3 -10 -28 -10 -55 0 -55
-8 -83 -21 -74 -11 7 -12 -56 -1 -74 6 -8 19 -10 40 -6 27 6 32 11 32 35 0 16
5 29 10 29 6 0 10 11 10 24 0 33 10 57 21 50 5 -3 9 20 9 50 0 31 5 56 10 56
6 0 10 22 10 49 0 56 8 84 21 75 5 -3 9 24 9 60 0 36 5 68 10 71 5 3 10 30 11
58 1 54 15 114 20 87 1 -8 6 32 10 90 6 82 21 241 28 303 1 5 6 5 11 2 6 -4
10 28 10 89 0 98 6 130 21 120 5 -3 9 55 9 135 0 87 4 141 10 141 7 0 10 294
10 861 0 571 -3 858 -10 854 -6 -4 -10 43 -10 133 0 115 -3 141 -15 146 -12 4
-15 26 -15 105 0 65 -4 101 -11 103 -11 4 -21 80 -38 303 -4 55 -9 96 -10 90
-6 -20 -19 41 -20 92 -1 28 -5 55 -11 58 -5 3 -10 31 -10 61 0 36 -5 61 -15
70 -9 10 -15 34 -15 64 0 27 -4 52 -10 55 -5 3 -10 40 -10 81 0 41 -4 73 -9
70 -11 -7 -21 27 -21 71 0 17 -4 35 -10 38 -5 3 -10 28 -10 56 0 34 -4 48 -12
46 -9 -1 -14 14 -16 46 -2 26 -7 47 -13 47 -5 0 -9 28 -9 63 0 37 -4 57 -9 49
-10 -17 -21 16 -21 66 0 17 -4 32 -10 32 -5 0 -10 20 -10 45 0 31 -4 44 -12
42 -9 -1 -14 13 -16 41 -2 23 -7 42 -13 42 -5 0 -9 20 -9 45 0 31 -4 44 -12
42 -9 -1 -14 14 -16 46 -2 26 -7 45 -12 42 -5 -3 -13 12 -16 35 -4 22 -11 43
-15 46 -5 3 -9 21 -9 40 0 19 -4 33 -9 30 -11 -7 -21 17 -21 50 0 13 -4 24
-10 24 -5 0 -10 16 -10 36 0 19 -7 42 -15 50 -8 9 -15 26 -15 40 0 13 -4 24
-10 24 -5 0 -10 16 -10 35 0 23 -4 34 -12 32 -8 -1 -14 11 -16 31 -2 17 -7 32
-13 32 -5 0 -9 15 -9 34 0 21 -6 36 -15 40 -9 3 -15 18 -15 36 0 16 -4 30 -10
30 -5 0 -10 14 -10 30 0 20 -5 30 -15 30 -9 0 -15 9 -15 25 0 14 -4 25 -10 25
-5 0 -10 16 -10 35 0 24 -5 35 -15 35 -10 0 -15 10 -15 30 0 17 -4 30 -10 30
-5 0 -10 14 -10 30 0 20 -5 30 -15 30 -9 0 -15 9 -15 24 0 13 -7 26 -15 30 -8
3 -15 17 -15 31 0 14 -4 25 -10 25 -5 0 -10 14 -10 31 0 18 -4 28 -10 24 -6
-4 -13 7 -16 24 -4 17 -10 31 -15 31 -5 0 -9 11 -9 24 0 13 -7 26 -15 30 -8 3
-15 15 -15 26 0 11 -4 20 -10 20 -5 0 -10 11 -10 24 0 13 -7 26 -15 30 -8 3
-15 15 -15 26 0 11 -4 20 -10 20 -5 0 -10 13 -10 30 0 18 -5 29 -12 27 -7 -1
-14 8 -16 21 -2 12 -8 22 -13 22 -5 0 -9 11 -9 25 0 16 -6 25 -15 25 -9 0 -15
9 -15 25 0 14 -4 25 -10 25 -5 0 -10 11 -10 25 0 14 -5 24 -12 22 -7 -1 -14 8
-16 21 -2 12 -8 22 -13 22 -5 0 -9 9 -9 20 0 11 -7 20 -15 20 -9 0 -15 9 -15
25 0 14 -3 25 -7 25 -11 0 -43 58 -43 76 0 9 -4 13 -9 9 -5 -3 -12 4 -16 15
-3 11 -11 20 -16 20 -5 0 -9 11 -9 24 0 13 -7 26 -15 30 -8 3 -15 12 -15 21 0
8 -4 15 -10 15 -5 0 -10 9 -10 19 0 10 -7 21 -15 25 -8 3 -15 12 -15 21 0 8
-4 15 -10 15 -5 0 -10 9 -10 19 0 10 -7 21 -15 25 -8 3 -15 12 -15 21 0 8 -4
15 -10 15 -5 0 -10 12 -10 26 0 15 -4 23 -11 19 -6 -4 -13 2 -16 14 -3 12 -9
21 -14 21 -5 0 -9 9 -9 21 0 12 -4 17 -11 14 -6 -4 -13 2 -16 14 -3 12 -9 21
-14 21 -5 0 -9 9 -9 20 0 11 -7 20 -15 20 -8 0 -15 9 -15 20 0 11 -7 20 -15
20 -8 0 -15 7 -15 15 0 8 -4 15 -10 15 -5 0 -10 7 -10 14 0 8 -11 27 -25 42
-14 15 -25 31 -25 36 0 5 -11 19 -25 32 -14 13 -25 31 -25 40 0 9 -7 16 -15
16 -8 0 -15 7 -15 15 0 8 -4 15 -10 15 -5 0 -10 9 -10 21 0 12 -4 17 -11 14
-6 -4 -13 2 -16 14 -3 12 -9 21 -14 21 -5 0 -9 7 -9 15 0 8 -7 15 -15 15 -8 0
-15 7 -15 15 0 8 -4 15 -10 15 -5 0 -10 9 -10 21 0 11 -4 18 -8 15 -11 -7 -42
30 -42 50 0 8 -5 12 -10 9 -6 -3 -13 2 -17 12 -4 10 -17 28 -30 40 -13 12 -23
27 -23 33 0 5 -7 10 -15 10 -8 0 -15 7 -15 15 0 8 -4 15 -10 15 -5 0 -10 5
-10 10 0 6 -11 21 -25 34 -14 13 -25 26 -25 30 0 4 -11 17 -25 30 -14 13 -25
29 -25 35 0 7 -4 10 -8 7 -8 -5 -42 28 -42 40 0 3 -11 15 -25 28 -14 13 -25
29 -25 35 0 7 -4 10 -8 7 -7 -4 -42 27 -42 39 0 2 -29 33 -65 68 -36 36 -65
70 -65 76 0 7 -4 10 -8 7 -10 -6 -42 29 -42 45 0 5 -4 8 -8 5 -10 -6 -42 29
-42 45 0 5 -4 8 -8 5 -9 -6 -42 29 -42 44 0 6 -3 9 -7 8 -15 -3 -43 14 -43 26
0 7 -11 19 -25 26 -14 7 -25 17 -25 22 0 4 -7 8 -15 8 -8 0 -15 7 -15 15 0 8
-4 15 -9 15 -5 0 -45 33 -88 74 -109 103 -113 107 -113 99 0 -5 -11 4 -24 20
-13 15 -26 27 -30 27 -11 0 -36 27 -36 38 0 5 -11 13 -25 16 -14 4 -25 11 -25
16 0 6 -5 10 -11 10 -6 0 -28 18 -50 40 -22 22 -44 40 -49 40 -15 0 -50 33
-44 42 3 4 -2 5 -10 2 -10 -4 -16 -1 -16 9 0 8 -11 18 -25 21 -14 4 -25 11
-25 16 0 6 -5 10 -10 10 -6 0 -22 11 -36 25 -14 14 -31 25 -39 25 -8 0 -15 5
-15 10 0 6 -5 10 -11 10 -13 0 -39 25 -39 38 0 5 -11 13 -25 16 -14 4 -25 11
-25 16 0 6 -7 10 -15 10 -8 0 -15 4 -15 9 0 5 -11 12 -25 15 -14 4 -25 11 -25
16 0 6 -5 10 -10 10 -6 0 -22 11 -36 25 -14 14 -31 25 -39 25 -8 0 -15 4 -15
9 0 5 -11 12 -25 15 -14 4 -25 11 -25 16 0 6 -5 10 -11 10 -6 0 -17 6 -24 13
-33 29 -45 37 -55 37 -5 0 -10 3 -10 8 0 4 -22 18 -50 31 -27 13 -50 28 -50
32 0 5 -7 9 -15 9 -8 0 -15 5 -15 10 0 6 -6 10 -14 10 -8 0 -21 6 -28 14 -8 7
-30 19 -51 27 -20 7 -37 19 -37 26 0 7 -11 13 -25 13 -14 0 -25 4 -25 10 0 5
-11 12 -25 16 -14 3 -25 10 -25 14 0 5 -20 16 -45 26 -25 9 -45 21 -45 25 0 5
-9 9 -19 9 -10 0 -22 7 -25 16 -4 9 -13 14 -21 10 -9 -3 -18 1 -21 9 -4 8 -17
15 -30 15 -13 0 -24 4 -24 10 0 5 -11 12 -25 16 -14 3 -25 10 -25 15 0 5 -11
9 -25 9 -16 0 -25 6 -25 15 0 9 -9 15 -25 15 -14 0 -25 5 -25 10 0 6 -11 10
-25 10 -16 0 -25 6 -25 15 0 9 -9 15 -25 15 -14 0 -25 5 -25 10 0 6 -9 10 -19
10 -28 0 -52 11 -45 21 3 5 -9 9 -25 9 -17 0 -31 4 -31 9 0 5 -14 12 -30 16
-17 4 -28 11 -24 16 3 5 -9 9 -25 9 -17 0 -31 4 -31 10 0 5 -16 12 -36 16 -25
5 -32 9 -22 15 8 6 0 9 -24 9 -20 0 -40 5 -43 10 -3 6 -15 10 -26 10 -11 0
-22 7 -25 15 -4 8 -16 15 -29 15 -13 0 -25 6 -28 14 -3 7 -18 14 -33 14 -16 0
-30 5 -32 11 -2 6 -22 11 -44 11 -32 0 -39 3 -34 15 4 11 -2 15 -24 15 -17 0
-30 5 -30 10 0 6 -16 10 -35 10 -22 0 -38 6 -41 15 -4 9 -19 15 -40 15 -19 0
-34 5 -34 10 0 6 -16 10 -35 10 -22 0 -38 6 -41 15 -4 9 -19 15 -40 15 -19 0
-34 4 -34 9 0 5 -18 11 -40 15 -22 3 -40 11 -40 16 0 6 -15 10 -34 10 -19 0
-37 4 -40 9 -4 5 -29 12 -56 16 -28 4 -47 11 -44 16 3 5 -13 9 -35 9 -23 0
-41 5 -41 10 0 6 -18 10 -40 10 -29 0 -40 4 -40 15 0 11 -12 15 -44 15 -25 0
-47 4 -50 9 -4 5 -29 12 -56 16 -28 4 -50 11 -50 16 0 5 -22 9 -49 9 -31 0
-55 6 -65 15 -10 10 -30 15 -58 13 -25 -1 -43 3 -46 10 -2 7 -21 12 -42 12
-46 0 -72 9 -64 21 3 5 -20 9 -50 9 -30 0 -58 5 -61 10 -3 6 -30 10 -59 10
-72 0 -122 10 -104 21 8 5 -19 9 -64 9 -45 0 -78 4 -78 10 0 6 -24 10 -52 10
-63 0 -100 9 -92 21 3 5 -31 9 -75 9 -44 0 -83 5 -86 10 -3 6 -30 10 -59 10
-29 0 -89 3 -132 7 -66 6 -73 8 -44 14 19 3 -33 7 -117 8 -89 0 -154 5 -158
11 -3 6 -19 10 -36 10 -16 0 -29 5 -29 10 0 7 -1683 10 -5030 10 l-5030 0 0
-8930z"/>
<path d="M10980 17673 c-52 -2 -99 -8 -104 -13 -6 -6 -56 -10 -113 -10 -77 0
-102 -3 -100 -12 1 -10 -21 -14 -83 -16 -46 -2 -87 -7 -90 -13 -4 -5 -46 -10
-94 -10 -54 0 -97 -6 -114 -15 -15 -8 -52 -14 -84 -14 -34 0 -58 -5 -60 -12
-2 -6 -31 -13 -66 -16 -34 -2 -62 -8 -62 -13 0 -5 -25 -9 -57 -9 -31 0 -53 -3
-49 -7 7 -7 -79 -25 -209 -42 -33 -4 -55 -9 -50 -10 23 -4 -23 -21 -57 -21
-21 0 -38 -4 -38 -10 0 -5 -22 -10 -50 -10 -36 0 -50 -4 -50 -14 0 -14 -24
-19 -147 -32 -36 -4 -53 -10 -53 -20 0 -10 -12 -14 -40 -14 -22 0 -40 -4 -40
-10 0 -5 -18 -10 -40 -10 -27 0 -39 -4 -38 -12 2 -8 -11 -14 -32 -16 -19 -2
-39 -8 -44 -13 -6 -5 -27 -9 -48 -9 -25 0 -41 -5 -44 -15 -4 -10 -20 -15 -45
-15 -21 0 -39 -4 -39 -10 0 -5 -13 -10 -29 -10 -16 0 -31 -6 -35 -15 -3 -9
-18 -15 -36 -15 -16 0 -30 -4 -30 -9 0 -5 -18 -12 -40 -16 -22 -4 -42 -11 -46
-16 -3 -5 -14 -9 -24 -9 -10 0 -33 -8 -52 -17 -61 -31 -68 -33 -88 -33 -11 0
-20 -3 -20 -8 0 -9 -90 -42 -114 -42 -9 0 -16 -7 -16 -15 0 -9 -9 -15 -25 -15
-14 0 -25 -4 -25 -10 0 -5 -9 -10 -20 -10 -11 0 -23 -7 -26 -15 -4 -8 -17 -15
-29 -15 -13 0 -25 -5 -27 -11 -2 -6 -16 -11 -31 -11 -14 0 -25 -5 -24 -12 1
-6 -8 -12 -20 -14 -13 -2 -23 -7 -23 -12 0 -4 -11 -11 -25 -14 -14 -4 -25 -11
-25 -16 0 -6 -11 -10 -25 -10 -14 0 -25 -4 -25 -9 0 -5 -11 -12 -25 -15 -14
-4 -25 -11 -25 -16 0 -6 -9 -10 -19 -10 -10 0 -21 -7 -25 -15 -3 -8 -12 -15
-21 -15 -8 0 -15 -4 -15 -10 0 -5 -11 -10 -24 -10 -13 0 -26 -7 -30 -15 -3 -8
-15 -15 -26 -15 -11 0 -20 -4 -20 -10 0 -5 -7 -10 -15 -10 -8 0 -15 -4 -15
-10 0 -5 -11 -12 -25 -16 -14 -3 -25 -10 -25 -15 0 -5 -7 -9 -15 -9 -8 0 -25
-11 -38 -24 -13 -13 -33 -27 -45 -30 -12 -4 -22 -12 -22 -17 0 -5 -7 -9 -15
-9 -8 0 -15 -4 -15 -9 0 -5 -11 -12 -25 -15 -14 -4 -25 -11 -25 -16 0 -6 -7
-10 -15 -10 -8 0 -15 -4 -15 -9 0 -5 -10 -13 -22 -17 -13 -4 -30 -15 -39 -25
-9 -11 -19 -19 -23 -19 -7 0 -38 -25 -72 -57 -13 -13 -28 -23 -34 -23 -5 0
-10 -4 -10 -9 0 -5 -10 -13 -22 -17 -12 -3 -36 -22 -54 -40 -17 -19 -36 -34
-43 -34 -6 0 -29 -18 -51 -40 -22 -22 -44 -40 -48 -40 -4 0 -14 -9 -22 -20 -8
-11 -19 -20 -25 -20 -6 0 -17 -9 -25 -20 -8 -11 -19 -20 -26 -20 -6 0 -17 -11
-24 -25 -7 -14 -17 -25 -21 -25 -4 0 -34 -27 -67 -60 -33 -33 -65 -60 -71 -60
-6 0 -11 -7 -11 -16 0 -8 -4 -12 -10 -9 -6 3 -10 -1 -10 -9 0 -9 -5 -16 -11
-16 -14 0 -39 -25 -39 -39 0 -6 -7 -11 -15 -11 -8 0 -15 -5 -15 -11 0 -14 -25
-39 -39 -39 -6 0 -11 -4 -11 -10 0 -15 -33 -50 -42 -44 -4 3 -8 -2 -8 -10 0
-9 -4 -16 -10 -16 -5 0 -10 -7 -10 -15 0 -8 -7 -15 -15 -15 -8 0 -15 -4 -15
-10 0 -15 -33 -50 -42 -44 -4 3 -8 0 -8 -6 0 -17 -36 -61 -44 -53 -3 3 -6 0
-6 -9 0 -18 -58 -84 -71 -81 -5 2 -9 -6 -9 -18 0 -11 -4 -17 -10 -14 -5 3 -10
-3 -10 -14 0 -12 -7 -21 -15 -21 -8 0 -15 -7 -15 -15 0 -8 -4 -15 -10 -15 -5
0 -10 -7 -10 -15 0 -8 -7 -15 -15 -15 -8 0 -15 -9 -15 -20 0 -11 -4 -20 -10
-20 -5 0 -10 -7 -10 -15 0 -8 -7 -15 -15 -15 -8 0 -15 -7 -15 -15 0 -8 -4 -15
-10 -15 -5 0 -10 -7 -10 -15 0 -9 -7 -18 -15 -21 -8 -4 -15 -12 -15 -20 0 -8
-4 -14 -10 -14 -5 0 -10 -7 -10 -15 0 -9 -7 -18 -15 -21 -8 -4 -15 -12 -15
-19 0 -6 -11 -24 -25 -39 -14 -15 -25 -34 -25 -42 0 -7 -4 -14 -10 -14 -5 0
-10 -7 -10 -15 0 -9 -7 -18 -15 -21 -8 -4 -15 -15 -15 -25 0 -10 -7 -19 -15
-19 -8 0 -15 -9 -15 -20 0 -11 -4 -20 -9 -20 -5 0 -11 -9 -14 -21 -3 -12 -10
-18 -16 -14 -7 4 -11 -4 -11 -19 0 -14 -4 -26 -10 -26 -5 0 -10 -7 -10 -15 0
-9 -7 -18 -15 -21 -8 -4 -15 -15 -15 -25 0 -10 -4 -19 -9 -19 -5 0 -11 -10
-13 -22 -2 -13 -9 -22 -16 -21 -7 2 -12 -8 -12 -22 0 -14 -4 -25 -9 -25 -5 0
-11 -10 -13 -22 -2 -13 -9 -22 -16 -21 -7 2 -12 -8 -12 -22 0 -14 -4 -25 -9
-25 -5 0 -12 -11 -15 -25 -4 -14 -11 -25 -16 -25 -6 0 -10 -11 -10 -25 0 -14
-4 -25 -9 -25 -5 0 -12 -11 -15 -25 -4 -14 -11 -25 -16 -25 -6 0 -10 -5 -10
-12 0 -18 -33 -88 -42 -88 -4 0 -8 -11 -8 -25 0 -16 -6 -25 -15 -25 -10 0 -15
-10 -15 -30 0 -16 -4 -30 -9 -30 -5 0 -11 -10 -13 -22 -2 -13 -9 -22 -16 -21
-7 2 -12 -9 -12 -27 0 -17 -4 -30 -9 -30 -6 0 -11 -15 -13 -32 -2 -20 -8 -32
-15 -31 -9 2 -13 -9 -13 -32 0 -19 -4 -35 -9 -35 -5 0 -11 -12 -13 -27 -2 -16
-8 -27 -15 -25 -8 1 -13 -9 -13 -28 0 -16 -4 -30 -10 -30 -5 0 -10 -11 -10
-24 0 -33 -10 -57 -21 -50 -5 3 -9 -11 -9 -30 0 -20 -4 -36 -10 -36 -5 0 -10
-9 -10 -19 0 -28 -11 -52 -21 -45 -5 3 -9 -11 -9 -30 0 -20 -4 -36 -9 -36 -5
0 -11 -18 -15 -40 -4 -23 -11 -38 -16 -35 -6 4 -10 -12 -10 -39 0 -25 -4 -46
-10 -46 -5 0 -10 -14 -10 -30 0 -18 -6 -33 -15 -36 -9 -4 -15 -19 -15 -40 0
-22 -6 -37 -15 -40 -10 -4 -15 -20 -15 -45 0 -21 -4 -39 -10 -39 -5 0 -10 -15
-10 -34 0 -47 -10 -72 -21 -54 -5 8 -9 -9 -9 -44 0 -32 -4 -58 -9 -58 -6 0
-11 -19 -13 -42 -2 -28 -7 -42 -15 -40 -9 1 -13 -13 -13 -48 0 -27 -4 -50 -10
-50 -5 0 -10 -15 -10 -34 0 -54 -11 -100 -21 -84 -5 8 -9 -11 -9 -49 0 -34 -4
-65 -10 -68 -5 -3 -10 -24 -10 -45 0 -46 -9 -72 -21 -64 -5 3 -9 -22 -9 -55 0
-33 -4 -63 -10 -66 -5 -3 -10 -23 -10 -44 0 -59 -11 -105 -21 -89 -5 7 -9 -28
-9 -84 0 -59 -4 -98 -10 -98 -5 0 -10 -26 -10 -57 0 -67 -9 -105 -21 -97 -5 3
-9 -33 -9 -80 0 -47 -4 -88 -10 -91 -5 -3 -10 -30 -10 -59 0 -87 -12 -179 -21
-164 -5 7 -9 -60 -9 -152 0 -167 -5 -214 -21 -204 -5 3 -9 -90 -9 -216 0 -145
-3 -219 -10 -215 -7 4 -10 -160 -10 -485 0 -325 3 -489 10 -485 7 4 10 -75 10
-230 0 -135 4 -234 9 -231 16 10 21 -38 21 -224 0 -103 4 -179 9 -172 10 16
21 -79 21 -179 0 -37 5 -71 10 -74 6 -3 10 -52 10 -111 0 -59 4 -103 9 -100
11 7 21 -28 21 -76 0 -43 9 -51 45 -42 26 6 27 7 20 73 -12 118 -16 891 -5
891 6 0 10 59 10 163 0 168 6 220 21 195 5 -7 9 41 9 115 0 78 4 127 10 127 6
0 10 31 10 74 0 40 3 88 7 107 5 28 7 30 14 14 4 -11 8 32 8 97 1 66 5 119 11
123 6 3 10 30 10 60 0 59 8 88 21 79 5 -3 9 24 9 60 0 36 5 68 10 71 5 3 10
23 10 43 0 48 10 83 21 76 5 -3 9 26 9 65 0 38 5 73 10 76 6 3 10 26 10 50 0
25 6 50 15 59 8 8 15 32 15 55 0 23 5 41 10 41 6 0 10 12 10 28 0 39 11 73 21
66 5 -3 9 15 9 40 0 51 8 78 21 70 5 -3 9 18 9 45 0 28 5 51 10 51 6 0 10 16
10 35 0 24 5 35 15 35 11 0 15 11 15 40 0 22 5 40 10 40 6 0 10 12 10 28 0 44
11 76 21 60 6 -8 9 5 9 35 0 26 4 47 9 47 6 0 11 15 13 33 2 19 8 31 16 29 7
-1 12 9 12 28 0 17 4 38 9 48 6 9 12 30 16 45 3 15 10 25 15 22 6 -4 10 11 10
34 0 22 4 42 9 45 4 3 11 19 15 36 3 18 10 29 16 25 6 -4 10 6 10 24 0 17 4
31 9 31 5 0 12 16 15 35 4 20 11 33 17 30 5 -4 9 7 9 23 0 28 25 92 41 102 4
3 9 16 11 30 2 14 9 24 16 22 7 -1 12 10 12 28 0 16 4 30 9 30 5 0 11 12 13
28 2 15 8 26 16 24 8 -1 12 10 12 33 0 19 5 35 10 35 6 0 10 9 10 20 0 11 7
20 15 20 9 0 15 9 15 24 0 14 5 28 10 31 6 3 10 15 10 26 0 11 7 22 15 25 8 4
15 17 15 30 0 13 4 24 9 24 5 0 12 11 15 25 4 14 11 23 16 20 6 -3 10 5 10 19
0 14 5 26 10 26 6 0 10 9 10 20 0 11 7 23 15 26 8 4 15 12 15 19 0 19 30 75
41 75 5 0 9 6 9 14 0 18 32 76 43 76 4 0 7 9 7 20 0 11 7 20 15 20 9 0 15 9
15 25 0 14 4 25 9 25 5 0 11 9 14 21 3 12 10 18 16 14 7 -3 11 2 11 14 0 12 5
21 10 21 6 0 10 11 10 25 0 16 6 25 15 25 8 0 15 9 15 20 0 11 4 20 9 20 5 0
13 9 16 20 4 11 11 18 16 15 5 -4 9 0 9 8 0 23 31 78 41 72 5 -4 9 1 9 10 0 9
6 23 13 30 27 31 37 44 37 50 0 4 6 13 13 20 29 33 37 45 37 53 0 5 11 20 24
34 12 14 26 33 29 42 4 9 11 16 17 16 5 0 10 7 10 15 0 8 5 15 10 15 6 0 10 7
10 15 0 8 7 15 15 15 8 0 15 7 15 15 0 19 31 56 42 49 4 -3 8 2 8 12 0 9 11
27 25 40 14 13 25 28 25 34 0 5 5 10 10 10 6 0 10 7 10 15 0 8 7 15 15 15 8 0
15 5 15 11 0 7 11 22 25 35 14 13 25 28 25 34 0 5 4 10 9 10 5 0 13 9 16 20 4
11 11 18 16 15 5 -4 9 1 9 9 0 8 11 23 25 34 14 11 25 25 25 31 0 6 7 11 15
11 8 0 15 4 15 10 0 15 33 50 42 44 4 -3 8 0 8 5 0 16 32 51 42 45 4 -3 8 3 8
14 0 10 11 25 25 32 14 7 25 17 25 22 0 12 38 47 44 41 3 -4 6 -1 6 5 0 7 22
33 49 60 119 114 167 157 174 154 4 -1 7 3 7 9 0 13 25 39 38 39 5 0 15 11 22
25 7 14 19 25 27 25 7 0 13 5 13 10 0 6 7 10 16 10 8 0 12 5 9 10 -3 6 -1 10
4 10 12 0 26 12 90 73 22 20 44 37 50 37 6 0 11 4 11 8 0 5 16 17 35 28 19 10
35 24 35 31 0 7 6 13 13 13 7 0 19 9 27 20 8 11 20 20 27 20 7 0 21 9 30 19 9
11 20 18 25 15 4 -3 8 1 8 9 0 8 16 22 35 33 19 10 35 22 35 26 0 5 7 8 15 8
8 0 15 5 15 10 0 6 7 10 15 10 8 0 15 5 15 11 0 5 4 8 8 5 5 -3 15 4 22 15 8
10 23 19 33 19 10 0 15 4 12 10 -3 5 5 12 19 16 13 3 27 12 30 21 3 8 10 11
16 8 5 -3 10 -2 10 4 0 6 11 13 25 17 14 3 25 12 25 19 0 12 20 25 49 31 8 1
17 7 20 12 3 5 16 12 29 16 12 4 22 12 22 17 0 5 7 9 15 9 8 0 15 4 15 10 0 5
11 12 25 16 14 3 25 10 25 15 0 5 7 9 15 9 8 0 15 5 15 11 0 5 5 7 10 4 6 -3
10 -1 10 4 0 6 7 11 15 11 8 0 15 5 15 10 0 6 9 10 20 10 11 0 23 7 26 15 4 8
17 15 30 15 13 0 24 5 24 10 0 6 9 10 20 10 11 0 23 7 26 15 4 8 12 15 19 15
18 0 66 26 59 32 -3 3 7 8 21 12 14 4 25 11 25 16 0 6 14 10 31 10 16 0 28 4
25 9 -3 5 6 12 20 15 15 4 33 14 41 22 9 8 22 13 29 10 8 -3 14 -1 14 4 0 5
10 12 23 16 12 4 24 10 27 14 3 5 14 10 25 12 11 1 26 9 33 16 7 6 24 12 38
12 13 0 24 4 24 9 0 5 11 12 25 15 14 4 25 11 25 16 0 6 12 10 26 10 14 0 32
7 40 15 9 8 26 15 40 15 13 0 24 5 24 10 0 6 16 10 36 10 19 0 33 4 30 9 -7
10 17 21 45 21 10 0 19 5 19 10 0 6 9 10 21 10 11 0 27 7 35 15 9 8 29 15 45
15 16 0 29 5 29 10 0 6 14 10 31 10 17 0 37 7 45 15 9 8 26 15 39 15 13 0 27
5 30 10 3 6 22 10 41 10 24 0 34 5 34 15 0 11 11 15 40 15 22 0 40 5 40 10 0
6 16 10 36 10 19 0 42 7 50 15 9 8 30 15 49 15 18 0 35 5 37 11 2 5 18 11 36
11 18 1 37 7 43 15 7 8 33 13 68 13 34 0 51 4 43 9 -13 8 36 20 163 40 28 5
46 9 40 10 -21 5 32 20 73 20 23 1 42 6 42 11 0 6 30 10 71 10 38 0 68 4 65 9
-6 10 50 21 107 21 20 0 37 5 37 10 0 6 31 10 74 10 48 0 76 4 78 12 5 13 114
26 308 37 74 4 124 8 111 9 -13 1 -22 5 -18 8 20 20 577 27 2697 33 l2325 6
-2 30 c-1 16 -7 31 -13 33 -5 2 -10 10 -10 18 0 8 -7 14 -15 14 -8 0 -15 7
-15 15 0 8 -4 15 -10 15 -5 0 -10 7 -10 15 0 9 -11 26 -25 39 -14 13 -25 33
-25 45 0 12 -4 20 -8 17 -11 -7 -42 30 -42 50 0 8 -5 12 -10 9 -6 -3 -13 2
-17 12 -4 10 -17 29 -30 43 -13 14 -23 30 -23 37 0 7 -6 13 -13 13 -8 0 -20
12 -28 27 -8 16 -24 37 -36 49 -13 12 -23 24 -23 28 0 4 -11 17 -25 30 -14 13
-25 26 -25 30 0 4 -11 17 -25 30 -14 13 -25 31 -25 40 0 10 -4 15 -8 12 -9 -6
-42 29 -42 44 0 6 -7 10 -15 10 -8 0 -15 5 -15 11 0 14 -25 39 -39 39 -6 0
-11 5 -11 11 0 6 -22 33 -50 60 -27 27 -50 51 -50 54 0 9 -82 85 -92 85 -4 0
-8 8 -8 17 0 9 -3 14 -6 10 -3 -3 -28 17 -55 44 -27 27 -51 49 -55 49 -10 0
-34 28 -34 39 0 6 -5 11 -10 11 -9 0 -47 30 -86 68 -7 6 -16 12 -20 12 -3 0
-21 16 -40 35 -18 19 -35 35 -38 35 -3 0 -16 10 -29 23 -32 30 -66 57 -73 57
-10 0 -34 28 -34 40 0 6 -4 9 -9 5 -5 -3 -12 -1 -16 5 -6 9 -3634 12 -3895 3z"/>
<path d="M16420 17676 c0 -14 28 -54 34 -49 4 4 9 -3 13 -15 3 -12 9 -22 14
-22 5 0 9 -9 9 -21 0 -12 4 -17 11 -14 6 4 13 -2 16 -14 3 -12 9 -21 14 -21 5
0 9 -9 9 -19 0 -10 7 -21 15 -25 8 -3 15 -12 15 -21 0 -8 5 -15 10 -15 6 0 10
-9 10 -21 0 -12 4 -17 11 -14 6 4 13 -2 16 -14 3 -12 9 -21 14 -21 5 0 9 -9 9
-19 0 -10 7 -21 15 -25 8 -3 15 -12 15 -21 0 -8 3 -15 8 -15 4 0 16 -17 27
-37 11 -21 22 -40 25 -43 15 -14 40 -61 40 -75 0 -8 6 -15 13 -15 12 0 37 -44
37 -66 0 -6 7 -14 15 -18 8 -3 15 -15 15 -26 0 -11 5 -20 10 -20 6 0 10 -9 10
-19 0 -10 7 -21 15 -25 8 -3 15 -12 15 -21 0 -8 5 -15 10 -15 6 0 10 -11 10
-25 0 -16 6 -25 15 -25 9 0 15 -9 15 -25 0 -14 5 -25 10 -25 6 0 10 -11 10
-25 0 -14 5 -24 12 -22 7 1 14 -8 16 -20 2 -13 8 -23 13 -23 5 0 9 -9 9 -19 0
-10 7 -21 15 -25 8 -3 15 -17 15 -31 0 -15 4 -24 10 -20 6 4 13 -7 16 -24 4
-17 10 -31 15 -31 5 0 9 -11 9 -25 0 -14 4 -25 9 -25 11 0 41 -57 41 -77 0 -8
7 -21 15 -29 8 -9 15 -24 15 -35 0 -10 5 -19 10 -19 6 0 10 -11 10 -24 0 -13
7 -26 15 -30 8 -3 15 -17 15 -31 l0 -25 1175 2 1175 3 0 -7412 0 -7413 -3988
0 c-3811 0 -4369 3 -4340 21 7 5 -75 9 -182 9 -143 1 -206 5 -235 15 -26 10
-80 15 -152 15 -69 0 -113 4 -113 10 0 6 -36 10 -87 10 -49 0 -99 3 -112 7
-23 6 -23 7 -5 14 10 4 -36 8 -103 8 -75 1 -123 5 -123 11 0 6 -33 10 -79 10
-57 0 -84 4 -95 15 -10 10 -35 15 -80 15 -36 0 -68 5 -71 10 -3 6 -28 10 -55
10 -55 0 -83 8 -74 21 3 5 -30 9 -75 9 -44 0 -83 4 -86 10 -3 5 -28 10 -55 10
-30 0 -54 6 -64 15 -9 9 -33 15 -60 15 -25 0 -46 5 -46 10 0 6 -20 10 -44 10
-51 0 -78 8 -70 21 3 5 -20 9 -50 9 -30 0 -57 4 -60 9 -3 4 -26 11 -52 14 -26
2 -49 9 -53 15 -3 5 -24 12 -46 15 -66 9 -135 28 -135 38 0 5 -20 9 -44 9 -26
0 -48 6 -56 15 -7 9 -29 15 -51 15 -22 0 -39 5 -39 10 0 6 -13 10 -29 10 -16
0 -36 7 -45 15 -8 8 -24 15 -35 15 -12 0 -29 4 -39 9 -9 6 -34 13 -55 16 -21
3 -35 10 -32 16 4 5 -11 9 -34 9 -22 0 -43 4 -46 10 -3 5 -17 10 -31 10 -14 0
-27 7 -30 15 -4 9 -19 15 -35 15 -16 0 -29 4 -29 9 0 5 -18 11 -40 15 -23 4
-38 11 -35 16 4 6 -10 10 -34 10 -23 0 -41 5 -41 10 0 6 -11 10 -24 10 -13 0
-26 7 -30 15 -3 8 -15 15 -26 15 -20 0 -26 2 -88 33 -19 9 -42 17 -52 17 -20
0 -83 30 -88 43 -2 4 -15 7 -28 7 -13 0 -24 4 -24 10 0 5 -11 12 -25 16 -14 3
-25 10 -25 15 0 5 -11 9 -24 9 -14 0 -31 6 -38 13 -7 8 -18 12 -24 10 -7 -2
-18 2 -26 10 -8 8 -24 18 -36 21 -12 4 -20 12 -17 17 4 5 -8 9 -24 9 -17 0
-31 5 -31 10 0 6 -11 10 -25 10 -14 0 -28 7 -31 15 -4 8 -17 15 -30 15 -13 0
-24 4 -24 9 0 5 -9 13 -20 16 -11 4 -18 10 -16 14 3 4 -16 13 -40 20 -25 8
-48 20 -51 27 -3 8 -16 14 -29 14 -13 0 -24 5 -24 10 0 6 -8 10 -18 10 -10 0
-25 9 -35 20 -10 12 -22 18 -27 15 -6 -3 -10 -1 -10 4 0 6 -7 11 -15 11 -8 0
-15 5 -15 11 0 5 -5 7 -10 4 -6 -3 -10 -1 -10 4 0 6 -7 11 -15 11 -8 0 -15 4
-15 9 0 5 -11 12 -25 15 -14 4 -25 11 -25 16 0 6 -7 10 -15 10 -8 0 -15 4 -15
10 0 5 -11 12 -25 16 -14 3 -25 10 -25 15 0 5 -8 9 -19 9 -10 0 -31 12 -46 26
-16 15 -36 27 -44 29 -9 1 -15 8 -13 15 1 6 -2 9 -8 5 -5 -3 -13 1 -16 9 -3 9
-17 16 -30 16 -15 0 -24 6 -24 16 0 8 -4 13 -8 10 -5 -3 -16 4 -25 15 -9 10
-24 19 -32 19 -9 0 -13 4 -10 10 3 5 -1 10 -9 10 -9 0 -16 4 -16 9 0 5 -11 12
-25 15 -14 4 -25 11 -25 16 0 6 -5 10 -10 10 -6 0 -22 11 -36 25 -14 14 -30
25 -36 25 -6 0 -21 11 -34 25 -13 14 -26 25 -29 25 -4 0 -13 6 -20 13 -33 29
-45 37 -55 37 -5 0 -10 7 -10 15 0 8 -4 14 -9 12 -5 -1 -17 7 -27 19 -11 11
-35 30 -54 41 -19 12 -42 31 -50 42 -8 12 -18 21 -23 21 -4 0 -18 10 -31 23
-33 31 -65 57 -72 57 -3 0 -44 38 -90 85 -47 47 -88 85 -91 85 -9 0 -33 29
-33 39 0 6 -5 11 -11 11 -14 0 -39 25 -39 39 0 6 -5 11 -11 11 -6 0 -17 6 -25
14 -8 8 -14 19 -14 25 0 6 -5 11 -11 11 -6 0 -24 13 -40 29 -16 16 -29 34 -29
40 0 6 -5 11 -11 11 -10 0 -39 24 -39 33 0 3 -23 28 -50 55 -27 27 -50 55 -50
61 0 6 -7 11 -15 11 -8 0 -15 7 -15 15 0 8 -4 15 -10 15 -5 0 -10 5 -10 10 0
6 -11 21 -25 34 -14 13 -25 28 -25 35 0 6 -7 11 -15 11 -8 0 -15 7 -15 15 0 8
-4 15 -10 15 -5 0 -10 7 -10 15 0 8 -7 15 -15 15 -8 0 -15 5 -15 10 0 6 -11
21 -25 34 -14 13 -25 26 -25 29 0 3 -11 18 -25 33 -14 15 -25 31 -25 36 0 5
-11 19 -25 32 -14 13 -25 31 -25 40 0 10 -5 14 -11 11 -6 -4 -13 2 -16 14 -3
12 -9 21 -14 21 -5 0 -9 9 -9 21 0 12 -4 17 -11 14 -6 -4 -13 2 -16 14 -3 12
-9 21 -14 21 -5 0 -9 9 -9 21 0 12 -4 17 -11 14 -6 -4 -13 2 -16 14 -3 12 -9
21 -14 21 -5 0 -9 9 -9 19 0 10 -7 21 -15 25 -8 3 -15 12 -15 21 0 8 -4 15
-10 15 -5 0 -10 6 -10 14 0 8 -7 16 -15 20 -8 3 -15 12 -15 21 0 8 -4 15 -9
15 -5 0 -11 8 -15 18 -8 24 -26 52 -63 96 -7 8 -13 22 -13 31 0 8 -3 15 -7 15
-11 0 -43 58 -43 76 0 8 -6 13 -12 11 -7 -1 -14 8 -16 21 -2 12 -8 22 -13 22
-5 0 -9 9 -9 19 0 10 -7 21 -15 25 -8 3 -15 15 -15 26 0 11 -4 20 -10 20 -5 0
-10 11 -10 25 0 14 -5 24 -12 22 -7 -1 -14 8 -16 21 -2 12 -8 22 -13 22 -5 0
-9 11 -9 25 0 14 -5 24 -12 22 -7 -1 -14 8 -16 21 -2 12 -8 22 -13 22 -5 0 -9
11 -9 24 0 13 -7 26 -15 30 -8 3 -15 15 -15 26 0 11 -4 20 -9 20 -5 0 -12 11
-15 25 -4 14 -11 25 -16 25 -6 0 -10 11 -10 24 0 13 -3 26 -7 28 -13 5 -43 68
-43 88 0 10 -7 20 -15 24 -8 3 -15 15 -15 26 0 11 -4 20 -10 20 -5 0 -10 14
-10 31 0 16 -4 28 -9 25 -10 -7 -21 17 -21 45 0 10 -4 19 -10 19 -5 0 -10 13
-10 30 0 19 -5 29 -12 27 -8 -1 -14 10 -16 26 -2 15 -8 27 -13 27 -5 0 -9 15
-9 34 0 21 -6 36 -15 40 -8 3 -15 17 -15 31 0 14 -4 25 -10 25 -5 0 -10 16
-10 35 0 23 -4 34 -12 32 -8 -1 -14 11 -16 31 -2 17 -7 32 -13 32 -5 0 -9 16
-9 36 0 19 -4 33 -9 30 -11 -7 -21 17 -21 50 0 13 -4 24 -10 24 -5 0 -10 11
-10 24 0 14 -7 31 -15 40 -8 8 -15 28 -15 45 0 17 -4 31 -9 31 -5 0 -12 18
-16 40 -4 22 -11 42 -16 46 -5 3 -9 21 -9 40 0 20 -7 42 -15 50 -8 9 -15 26
-15 39 0 13 -5 27 -10 30 -6 3 -10 24 -10 46 0 22 -4 38 -9 35 -11 -7 -21 18
-21 54 0 16 -5 32 -10 35 -6 3 -10 31 -10 61 0 38 -4 53 -12 51 -9 -1 -14 13
-16 40 -2 24 -7 43 -13 43 -5 0 -9 22 -9 50 0 35 -4 49 -12 47 -9 -1 -14 15
-16 51 -2 28 -7 52 -13 52 -5 0 -9 33 -9 73 0 43 -4 67 -9 59 -12 -19 -21 8
-21 64 0 24 -4 44 -10 44 -6 0 -10 27 -10 60 0 43 -4 59 -12 57 -9 -1 -14 18
-16 66 -2 37 -7 67 -11 67 -4 0 -11 37 -15 82 -4 46 -11 87 -16 92 -6 6 -10
42 -10 82 0 46 -4 74 -12 76 -6 2 -13 37 -16 86 -2 45 -9 85 -13 88 -5 3 -9
50 -9 105 0 64 -4 98 -10 94 -6 -4 -10 11 -11 37 0 24 -5 99 -11 168 -5 69
-13 224 -17 345 -4 121 -8 207 -10 190 -10 -84 -19 127 -20 481 -1 392 6 580
20 519 4 -16 7 61 8 172 0 111 5 223 11 250 5 26 13 110 16 185 3 77 10 135
15 132 5 -3 9 36 9 90 0 52 4 98 10 101 6 3 10 33 10 65 0 39 5 64 15 74 9 9
15 33 15 60 0 46 0 46 -34 46 -35 0 -46 -13 -46 -51 0 -10 -4 -19 -10 -19 -5
0 -10 -16 -10 -35 0 -22 -6 -38 -15 -41 -10 -4 -15 -21 -15 -53 0 -26 -4 -51
-9 -56 -6 -6 -11 -35 -13 -65 -2 -37 -7 -54 -15 -53 -9 2 -13 -15 -13 -61 0
-36 -4 -68 -10 -71 -5 -3 -10 -25 -10 -48 0 -23 -3 -67 -7 -97 -5 -45 -8 -50
-14 -30 -4 14 -7 -18 -8 -77 -1 -56 -5 -105 -11 -108 -5 -3 -10 -39 -11 -78
-1 -69 -14 -139 -20 -107 -1 8 -6 -34 -10 -95 -4 -60 -13 -173 -19 -250 -16
-207 -10 -2059 8 -2077 8 -8 12 -48 12 -122 0 -64 4 -105 9 -98 11 19 21 -33
21 -114 0 -36 4 -64 10 -64 6 0 10 -43 11 -107 1 -62 4 -97 8 -83 6 21 8 18
14 -24 4 -27 7 -71 7 -97 0 -27 5 -49 10 -49 6 0 10 -30 10 -70 0 -51 3 -69
13 -67 8 1 13 -16 15 -55 2 -32 7 -58 12 -58 6 0 10 -35 11 -77 0 -47 3 -70 8
-58 7 16 9 14 14 -14 4 -19 7 -51 7 -72 0 -22 5 -39 10 -39 6 0 10 -25 10 -55
0 -39 4 -54 12 -52 9 1 14 -14 16 -45 2 -27 7 -48 13 -48 5 0 9 -19 9 -42 0
-24 7 -52 15 -62 8 -11 15 -39 15 -64 0 -24 4 -41 9 -37 6 3 13 -15 17 -40 3
-25 10 -48 15 -51 5 -3 9 -21 9 -40 0 -20 7 -42 15 -50 8 -9 15 -28 15 -44 0
-16 5 -32 10 -35 6 -3 10 -26 10 -51 0 -25 4 -43 9 -40 11 7 21 -17 21 -50 0
-13 5 -24 10 -24 6 0 10 -18 10 -41 0 -22 4 -38 9 -35 11 7 21 -17 21 -50 0
-13 5 -24 10 -24 6 0 10 -18 10 -41 0 -22 4 -38 9 -35 10 7 21 -17 21 -45 0
-10 5 -19 10 -19 6 0 10 -18 10 -40 0 -27 4 -39 13 -37 7 1 13 -11 15 -30 2
-18 7 -33 13 -33 5 0 9 -16 9 -36 0 -19 4 -33 9 -30 10 7 21 -17 21 -45 0 -10
5 -19 10 -19 6 0 10 -11 10 -24 0 -13 7 -29 15 -36 8 -7 15 -23 15 -36 0 -13
4 -24 9 -24 5 0 12 -13 16 -30 4 -16 11 -32 16 -35 5 -4 9 -20 9 -36 0 -18 4
-28 10 -24 6 4 13 -7 16 -24 4 -17 10 -31 15 -31 5 0 9 -14 9 -31 0 -18 4 -28
10 -24 6 4 13 -7 16 -24 4 -17 10 -31 15 -31 5 0 9 -13 9 -29 0 -16 6 -31 15
-35 8 -3 15 -15 15 -26 0 -11 5 -20 10 -20 6 0 10 -13 10 -30 0 -19 5 -29 12
-27 8 1 14 -10 16 -25 2 -16 8 -28 13 -28 5 0 9 -11 9 -24 0 -13 7 -26 15 -30
8 -3 15 -12 15 -21 0 -8 5 -15 10 -15 6 0 10 -13 10 -30 0 -18 5 -29 12 -27 7
1 14 -8 16 -20 2 -13 8 -23 13 -23 5 0 9 -11 9 -24 0 -13 7 -26 15 -30 8 -3
15 -14 15 -25 0 -10 7 -21 15 -25 8 -3 15 -12 15 -21 0 -8 5 -15 10 -15 6 0
10 -11 10 -25 0 -14 4 -25 9 -25 11 0 41 -56 41 -75 0 -7 7 -15 15 -19 8 -3
15 -12 15 -21 0 -8 5 -15 10 -15 6 0 10 -11 10 -25 0 -14 5 -24 12 -22 7 1 14
-8 16 -20 2 -13 8 -23 13 -23 5 0 9 -9 9 -19 0 -10 7 -21 15 -25 8 -3 15 -12
15 -21 0 -8 5 -15 10 -15 6 0 10 -9 10 -19 0 -10 7 -21 15 -25 8 -3 15 -12 15
-21 0 -8 5 -15 10 -15 6 0 10 -9 10 -19 0 -10 7 -21 15 -25 8 -3 15 -12 15
-21 0 -8 5 -15 10 -15 6 0 10 -9 10 -20 0 -11 7 -20 15 -20 8 0 15 -7 15 -15
0 -8 4 -15 9 -15 5 0 11 -8 15 -17 8 -25 26 -53 63 -97 7 -8 13 -19 13 -25 0
-5 7 -11 15 -15 8 -3 15 -12 15 -21 0 -8 5 -15 10 -15 6 0 10 -9 10 -21 0 -12
4 -17 11 -14 6 4 13 -2 16 -14 3 -12 9 -21 14 -21 5 0 9 -9 9 -21 0 -12 4 -17
11 -14 6 4 13 -2 16 -14 3 -12 9 -21 14 -21 5 0 9 -6 9 -14 0 -8 7 -16 15 -20
8 -3 15 -12 15 -21 0 -8 5 -15 10 -15 6 0 10 -7 10 -15 0 -8 7 -15 15 -15 8 0
15 -7 15 -15 0 -8 5 -15 10 -15 6 0 10 -7 10 -15 0 -8 5 -15 10 -15 6 0 14 -8
17 -17 4 -10 17 -27 30 -39 13 -12 23 -24 23 -28 0 -4 11 -19 25 -34 14 -15
25 -33 25 -40 0 -7 4 -11 8 -8 8 5 42 -28 42 -40 0 -3 11 -15 25 -28 14 -13
25 -31 25 -40 0 -10 4 -15 8 -12 9 6 42 -29 42 -44 0 -6 7 -10 15 -10 8 0 15
-7 15 -15 0 -8 5 -15 10 -15 6 0 10 -7 10 -15 0 -8 7 -15 15 -15 8 0 15 -7 15
-16 0 -8 4 -12 10 -9 5 3 10 1 10 -4 0 -6 18 -29 40 -51 22 -22 40 -45 40 -51
0 -5 5 -7 10 -4 6 3 10 2 10 -2 0 -5 18 -28 40 -51 22 -22 40 -46 40 -52 0 -6
4 -9 8 -6 10 6 42 -29 42 -45 0 -5 4 -8 8 -5 9 6 42 -29 42 -44 0 -6 5 -10 11
-10 14 0 39 -25 39 -39 0 -6 3 -10 7 -9 7 3 33 -20 144 -124 22 -21 42 -38 45
-38 10 0 34 -28 34 -39 0 -6 4 -10 8 -8 4 1 31 -22 60 -50 29 -29 59 -53 67
-53 8 0 15 -7 15 -16 0 -8 4 -13 9 -10 5 3 17 -6 27 -19 10 -14 24 -25 31 -25
7 0 13 -7 13 -15 0 -8 4 -14 9 -12 5 1 23 -10 40 -25 17 -16 35 -28 41 -28 5
0 10 -7 10 -15 0 -8 4 -14 9 -12 5 1 17 -7 27 -19 11 -12 29 -24 42 -28 12 -4
22 -12 22 -17 0 -5 5 -9 11 -9 13 0 39 -25 39 -38 0 -5 11 -13 25 -16 14 -4
25 -11 25 -16 0 -6 5 -10 10 -10 6 0 24 -13 41 -30 18 -16 35 -27 40 -24 5 3
9 0 9 -5 0 -6 7 -11 15 -11 8 0 15 -6 15 -14 0 -7 8 -16 18 -20 23 -7 53 -27
72 -47 8 -9 25 -19 38 -23 12 -4 22 -12 22 -17 0 -5 7 -9 15 -9 8 0 15 -4 15
-9 0 -5 10 -13 23 -17 12 -4 29 -15 37 -24 8 -9 25 -20 38 -24 12 -4 22 -12
22 -17 0 -5 7 -9 15 -9 8 0 15 -4 15 -10 0 -5 11 -12 25 -16 14 -3 25 -10 25
-14 0 -4 11 -11 25 -14 14 -4 25 -11 25 -16 0 -6 7 -10 15 -10 8 0 15 -4 15
-10 0 -5 11 -12 25 -16 14 -3 25 -10 25 -14 0 -4 15 -14 33 -21 17 -7 38 -19
45 -26 7 -7 20 -13 28 -13 8 0 14 -4 14 -9 0 -5 11 -12 25 -15 14 -4 25 -11
25 -16 0 -6 7 -10 15 -10 8 0 15 -4 15 -10 0 -5 11 -10 25 -10 16 0 25 -6 25
-15 0 -9 9 -15 25 -15 14 0 25 -4 25 -10 0 -5 11 -12 25 -16 14 -3 25 -10 25
-15 0 -5 9 -9 20 -9 11 0 23 -6 26 -13 2 -7 14 -14 26 -14 12 -1 24 -6 27 -11
3 -5 16 -12 29 -16 12 -4 20 -12 17 -17 -4 -5 8 -9 24 -9 17 0 31 -4 31 -9 0
-5 11 -12 25 -15 14 -4 25 -11 25 -16 0 -6 11 -10 25 -10 14 0 25 -4 25 -9 0
-5 14 -12 30 -16 17 -4 28 -11 24 -16 -3 -5 9 -9 25 -9 17 0 31 -4 31 -10 0
-5 9 -10 20 -10 11 0 23 -7 26 -15 4 -8 17 -15 30 -15 13 0 24 -4 24 -10 0 -5
11 -10 24 -10 13 0 26 -7 30 -15 3 -8 16 -15 30 -15 25 0 88 -29 94 -42 2 -5
12 -8 22 -8 26 0 51 -11 45 -20 -2 -4 7 -8 21 -8 15 0 29 -4 33 -9 3 -6 23
-13 44 -17 21 -4 35 -11 32 -17 -4 -5 8 -9 24 -9 17 0 31 -4 31 -10 0 -5 16
-10 35 -10 18 0 38 -6 42 -14 4 -7 19 -16 33 -19 114 -27 122 -30 109 -38 -9
-6 2 -9 34 -9 26 0 47 -4 47 -10 0 -5 9 -10 19 -10 28 0 52 -11 45 -21 -3 -5
11 -9 30 -9 20 0 36 -4 36 -9 0 -4 21 -11 46 -14 26 -2 49 -9 53 -15 3 -5 24
-12 46 -15 70 -9 135 -28 129 -38 -3 -5 13 -9 35 -9 22 0 43 -4 46 -10 3 -5
28 -12 55 -16 27 -4 47 -10 44 -15 -3 -5 19 -9 49 -9 40 0 56 -4 61 -15 4 -10
20 -15 51 -15 25 0 45 -4 45 -10 0 -5 22 -10 49 -10 34 0 51 -4 55 -15 4 -10
20 -15 50 -15 25 0 48 -4 51 -10 3 -6 34 -10 68 -10 76 0 115 -9 95 -21 -8 -5
11 -9 49 -9 34 0 65 -4 68 -10 3 -5 30 -10 60 -10 64 0 93 -9 73 -21 -8 -5 23
-9 74 -9 48 0 90 -4 93 -10 3 -5 25 -10 48 -10 81 0 179 -13 165 -21 -7 -5 35
-9 99 -9 64 0 114 -4 118 -10 3 -6 50 -10 106 -10 59 0 99 -4 99 -10 0 -7
1685 -10 5035 -10 l5035 0 0 8840 0 8840 -2350 0 c-1292 0 -2350 -2 -2350 -4z"/>
<path d="M16290 11928 c0 -573 -5 -743 -21 -703 -4 11 -8 -44 -8 -123 -1 -89
-5 -141 -11 -137 -5 3 -10 -33 -12 -92 -2 -72 -6 -97 -15 -95 -10 1 -13 -21
-13 -88 0 -53 -4 -90 -10 -90 -6 0 -10 -28 -10 -64 0 -35 -3 -79 -7 -97 -7
-33 -7 -33 -14 -9 -4 15 -7 -13 -8 -67 -1 -52 -5 -93 -11 -93 -5 0 -10 -26
-12 -57 -2 -40 -7 -57 -15 -55 -9 1 -13 -15 -13 -57 0 -33 -4 -63 -10 -66 -5
-3 -10 -21 -10 -38 0 -44 -10 -78 -21 -71 -5 3 -9 -24 -9 -60 0 -37 -4 -66
-10 -66 -5 0 -10 -15 -10 -34 0 -42 -9 -68 -21 -60 -5 3 -9 -15 -9 -40 0 -25
-4 -46 -10 -46 -5 0 -10 -12 -10 -27 0 -40 -11 -74 -21 -67 -5 3 -9 -15 -9
-40 0 -25 -4 -48 -10 -51 -5 -3 -10 -21 -10 -40 0 -18 -7 -40 -15 -49 -8 -8
-15 -26 -15 -41 0 -14 -7 -28 -15 -31 -10 -4 -15 -20 -15 -46 0 -23 -4 -37
-10 -33 -6 4 -10 -6 -10 -24 0 -37 -9 -62 -21 -55 -5 3 -9 -13 -9 -35 0 -23
-4 -41 -9 -41 -6 0 -11 -15 -13 -32 -2 -20 -8 -32 -15 -31 -9 2 -13 -9 -13
-32 0 -19 -4 -35 -9 -35 -5 0 -11 -19 -15 -42 -5 -32 -9 -39 -16 -28 -7 11
-10 3 -10 -27 0 -24 -4 -43 -10 -43 -5 0 -10 -11 -10 -25 0 -14 -7 -28 -15
-31 -9 -4 -15 -19 -15 -35 0 -16 -4 -29 -9 -29 -5 0 -11 -14 -15 -31 -3 -17
-10 -28 -16 -24 -6 4 -10 -8 -10 -29 0 -20 -4 -36 -10 -36 -5 0 -10 -11 -10
-25 0 -14 -7 -28 -15 -31 -8 -4 -15 -17 -15 -30 0 -13 -4 -24 -9 -24 -5 0 -11
-14 -15 -31 -3 -17 -10 -28 -16 -24 -6 4 -10 -5 -10 -20 0 -14 -7 -28 -15 -31
-9 -4 -15 -19 -15 -36 0 -16 -4 -27 -9 -23 -5 3 -11 -7 -13 -22 -2 -16 -8 -27
-15 -26 -8 2 -13 -7 -13 -22 0 -14 -4 -25 -9 -25 -5 0 -11 -10 -13 -22 -2 -13
-9 -22 -16 -21 -7 2 -12 -9 -12 -27 0 -17 -4 -30 -10 -30 -5 0 -10 -9 -10 -20
0 -11 -7 -23 -15 -26 -8 -4 -15 -15 -15 -25 0 -10 -4 -19 -10 -19 -5 0 -10 -9
-10 -20 0 -11 -7 -23 -15 -26 -8 -4 -15 -17 -15 -30 0 -13 -4 -24 -10 -24 -5
0 -10 -7 -10 -15 0 -9 -7 -18 -15 -21 -8 -4 -15 -15 -15 -25 0 -10 -4 -19 -9
-19 -5 0 -12 -11 -15 -25 -4 -14 -11 -23 -16 -20 -6 3 -10 -5 -10 -19 0 -14
-4 -26 -10 -26 -5 0 -10 -7 -10 -15 0 -9 -7 -18 -15 -21 -8 -4 -15 -15 -15
-25 0 -10 -7 -19 -15 -19 -8 0 -15 -9 -15 -20 0 -11 -4 -20 -10 -20 -5 0 -10
-9 -10 -20 0 -11 -7 -20 -15 -20 -8 0 -15 -9 -15 -20 0 -11 -4 -20 -10 -20 -5
0 -10 -7 -10 -15 0 -9 -6 -18 -13 -21 -8 -3 -20 -20 -27 -39 -8 -19 -20 -35
-27 -35 -7 0 -13 -9 -13 -20 0 -11 -4 -20 -10 -20 -5 0 -10 -7 -10 -15 0 -9
-7 -18 -15 -21 -8 -4 -15 -10 -15 -16 0 -5 -6 -16 -12 -23 -30 -33 -38 -45
-38 -55 0 -5 -4 -10 -9 -10 -5 0 -11 -9 -14 -21 -3 -12 -10 -18 -16 -14 -6 3
-11 -1 -11 -10 0 -9 -10 -26 -23 -38 -13 -12 -26 -30 -30 -39 -3 -10 -11 -18
-17 -18 -5 0 -10 -7 -10 -15 0 -8 -4 -15 -10 -15 -5 0 -10 -7 -10 -15 0 -8 -7
-15 -15 -15 -8 0 -15 -7 -15 -15 0 -8 -4 -15 -10 -15 -5 0 -10 -7 -10 -15 0
-8 -6 -15 -12 -15 -7 0 -20 -15 -29 -33 -9 -17 -22 -31 -28 -30 -6 2 -11 -4
-11 -12 0 -19 -31 -56 -42 -49 -4 3 -8 0 -8 -7 0 -6 -11 -22 -25 -35 -14 -13
-25 -26 -25 -29 0 -3 -11 -16 -25 -29 -14 -13 -25 -28 -25 -35 0 -6 -7 -11
-15 -11 -8 0 -14 -4 -12 -8 1 -5 -26 -36 -60 -70 -35 -34 -63 -66 -63 -72 0
-5 -5 -10 -11 -10 -14 0 -39 -25 -39 -39 0 -6 -6 -11 -13 -11 -8 0 -20 -11
-27 -25 -7 -14 -19 -25 -25 -25 -6 0 -18 -11 -25 -25 -7 -14 -17 -25 -22 -25
-13 0 -38 -26 -38 -39 0 -6 -7 -11 -15 -11 -8 0 -15 -4 -15 -10 0 -5 -7 -10
-16 -10 -8 0 -13 -4 -10 -8 5 -8 -28 -42 -40 -42 -4 0 -17 -11 -30 -26 -13
-14 -24 -22 -24 -18 0 4 -9 -4 -21 -17 -12 -13 -25 -23 -30 -22 -5 2 -9 -2 -9
-8 0 -14 -25 -39 -39 -39 -6 0 -11 -6 -11 -12 -1 -13 -73 -68 -88 -68 -5 0
-15 -11 -22 -25 -7 -14 -19 -25 -27 -25 -7 0 -13 -4 -13 -10 0 -5 -5 -10 -10
-10 -12 0 -25 -10 -70 -52 -15 -16 -33 -28 -39 -28 -6 0 -11 -4 -11 -10 0 -5
-7 -10 -15 -10 -8 0 -25 -11 -39 -25 -14 -14 -30 -25 -36 -25 -5 0 -10 -4 -10
-10 0 -5 -11 -12 -25 -16 -14 -3 -25 -11 -25 -16 0 -15 -32 -37 -52 -38 -10 0
-18 -7 -18 -15 0 -8 -7 -15 -15 -15 -8 0 -15 -4 -15 -10 0 -5 -11 -10 -25 -10
-14 0 -25 -5 -25 -11 0 -15 -30 -38 -50 -39 -8 0 -26 -12 -39 -25 -13 -14 -32
-25 -42 -25 -10 0 -19 -7 -19 -15 0 -8 -7 -15 -15 -15 -8 0 -15 -4 -15 -10 0
-5 -11 -10 -24 -10 -13 0 -26 -7 -30 -15 -3 -8 -15 -15 -26 -15 -11 0 -20 -4
-20 -10 0 -5 -5 -10 -11 -10 -6 0 -17 -6 -24 -12 -37 -33 -46 -38 -70 -38 -14
0 -24 -5 -23 -12 2 -7 -7 -14 -20 -16 -13 -2 -26 -10 -29 -18 -3 -9 -13 -12
-24 -9 -12 4 -21 1 -25 -9 -3 -9 -13 -16 -21 -16 -8 0 -11 -4 -8 -10 6 -9 -10
-14 -42 -13 -7 0 -11 -4 -10 -10 1 -7 -9 -13 -23 -15 -14 -2 -27 -7 -30 -11
-12 -16 -61 -41 -81 -41 -12 0 -20 -3 -16 -6 9 -9 -63 -44 -91 -44 -13 0 -21
-4 -18 -9 7 -10 -17 -21 -45 -21 -10 0 -19 -4 -19 -10 0 -5 -11 -10 -25 -10
-16 0 -25 -6 -25 -15 0 -9 -9 -15 -25 -15 -14 0 -25 -4 -25 -10 0 -5 -12 -10
-26 -10 -14 0 -32 -7 -40 -15 -9 -8 -26 -15 -40 -15 -13 0 -24 -4 -24 -10 0
-5 -11 -10 -24 -10 -13 0 -26 -7 -30 -15 -3 -9 -18 -15 -35 -15 -16 0 -33 -5
-36 -10 -3 -5 -15 -10 -26 -10 -11 0 -27 -7 -35 -15 -9 -8 -27 -15 -40 -15
-14 0 -32 -7 -41 -15 -9 -9 -23 -13 -34 -10 -12 4 -21 1 -25 -9 -4 -10 -18
-16 -39 -16 -20 0 -35 -6 -39 -15 -3 -9 -19 -15 -41 -15 -19 0 -35 -4 -35 -10
0 -5 -21 -10 -46 -10 -27 0 -43 -4 -39 -10 3 -5 -7 -12 -22 -15 -15 -3 -42
-10 -59 -15 -17 -6 -42 -10 -57 -10 -17 0 -27 -5 -27 -15 0 -11 -11 -15 -40
-15 -22 0 -40 -4 -40 -10 0 -6 -28 -10 -62 -10 -38 0 -58 -4 -50 -9 16 -10
-16 -21 -60 -21 -15 0 -30 -4 -33 -10 -3 -5 -32 -10 -63 -10 -35 0 -52 -4 -44
-9 17 -10 -17 -21 -70 -21 -20 0 -40 -5 -43 -10 -3 -6 -39 -10 -78 -11 -47 -1
-63 -3 -47 -8 23 -7 21 -8 -15 -14 -22 -4 -64 -7 -92 -7 -29 0 -53 -4 -53 -10
0 -6 -30 -10 -70 -10 -54 0 -72 -4 -76 -15 -5 -12 -24 -15 -85 -15 -46 0 -79
-4 -79 -10 0 -6 -46 -10 -117 -11 -66 0 -109 -4 -98 -8 31 -12 -60 -21 -226
-21 -109 0 -148 -3 -151 -12 -4 -10 -472 -14 -2286 -16 -2265 -2 -2282 -3
-2282 -22 0 -11 5 -20 10 -20 6 0 10 -9 10 -20 0 -11 7 -20 15 -20 8 0 15 -4
15 -9 0 -6 11 -22 25 -37 14 -15 25 -31 25 -37 0 -5 11 -20 25 -33 14 -13 25
-30 25 -39 0 -9 4 -14 8 -11 10 6 42 -29 42 -45 0 -5 11 -20 25 -33 14 -13 25
-26 25 -30 0 -4 11 -17 25 -30 14 -13 25 -31 25 -40 0 -10 5 -14 11 -11 6 4
13 -2 16 -14 3 -12 9 -21 14 -21 5 0 9 -7 9 -16 0 -8 4 -13 8 -10 8 5 42 -28
42 -39 0 -3 18 -23 40 -45 22 -22 40 -42 40 -45 0 -3 11 -16 25 -29 14 -13 25
-29 25 -35 0 -7 4 -10 8 -7 9 6 42 -29 42 -44 0 -6 7 -10 15 -10 8 0 15 -4 15
-10 0 -10 126 -140 136 -140 10 0 34 -28 34 -39 0 -6 5 -11 10 -11 10 0 47
-30 102 -83 16 -15 31 -27 34 -27 10 0 34 -28 34 -39 0 -6 4 -10 8 -8 4 1 19
-9 34 -23 38 -37 67 -60 76 -60 4 0 14 -9 22 -20 8 -11 19 -20 25 -20 6 0 16
-9 23 -20 7 -12 17 -18 22 -15 6 4 13 -1 16 -9 3 -9 11 -16 16 -16 6 0 18 -8
27 -18 9 -10 33 -28 54 -41 20 -12 43 -31 50 -40 6 -10 22 -21 35 -25 12 -4
22 -14 22 -22 0 -12 234 -14 1788 -12 1683 3 1788 4 1812 21 20 14 46 17 137
17 69 0 113 4 113 10 0 6 53 10 138 11 75 0 128 4 117 8 -16 7 -14 9 14 14 19
4 62 7 97 7 36 0 64 4 64 10 0 6 32 10 75 10 60 0 75 3 75 15 0 12 14 15 65
15 37 0 65 4 65 10 0 6 35 10 83 11 49 0 74 3 62 8 -15 6 -11 9 20 14 22 4 57
7 78 7 20 0 37 5 37 10 0 6 25 10 56 10 30 0 53 4 50 9 -7 11 27 21 72 21 20
0 31 4 27 10 -6 10 11 14 50 11 12 -1 34 5 50 13 17 9 51 16 78 16 26 0 47 4
47 9 0 10 72 30 138 38 27 3 42 10 42 19 0 9 12 14 35 14 19 0 35 5 35 10 0 6
23 10 50 10 28 0 50 4 50 10 0 5 18 13 40 16 22 4 40 10 40 15 0 5 16 9 35 9
22 0 38 6 41 15 4 9 19 15 40 15 19 0 34 5 34 10 0 6 15 10 34 10 18 0 39 7
46 15 7 8 25 15 41 15 16 0 29 5 29 10 0 6 16 10 36 10 19 0 33 4 30 9 -7 10
17 21 45 21 10 0 19 5 19 10 0 6 12 10 26 10 14 0 32 7 40 15 9 8 26 15 39 15
13 0 25 5 27 11 2 6 16 12 31 11 15 0 24 4 21 9 -3 5 8 12 25 15 17 4 31 10
31 14 0 4 21 15 48 24 62 23 116 49 120 59 2 4 15 7 28 7 15 0 24 6 24 15 0 9
9 15 25 15 14 0 25 5 25 10 0 6 9 10 20 10 11 0 23 7 26 15 4 8 17 15 30 15
13 0 24 5 24 10 0 6 9 10 20 10 11 0 23 7 26 15 4 8 12 15 19 15 7 0 15 5 17
10 2 6 13 12 26 13 12 0 22 7 22 14 0 7 11 13 25 13 14 0 25 5 25 10 0 6 7 10
15 10 8 0 25 11 38 24 13 13 33 27 45 30 12 4 22 12 22 17 0 5 9 9 19 9 10 0
21 7 25 15 3 8 12 15 21 15 8 0 15 5 15 10 0 6 11 10 25 10 16 0 25 6 25 15 0
8 7 15 15 15 8 0 15 5 15 10 0 6 7 10 15 10 8 0 15 5 15 12 0 6 3 8 6 5 4 -4
14 1 23 11 19 20 50 40 74 48 9 4 17 10 17 15 0 5 7 9 15 9 8 0 14 5 13 12 -2
7 2 12 9 13 6 0 25 12 42 28 17 15 35 27 41 27 5 0 10 4 10 9 0 5 8 12 19 16
10 3 35 21 54 40 20 19 41 35 47 35 5 0 10 5 10 11 0 5 4 8 8 5 5 -3 16 6 26
19 10 14 22 22 27 19 5 -3 9 0 9 6 0 12 24 40 34 40 7 0 39 26 74 60 15 14 30
24 34 22 4 -1 8 3 8 9 0 14 25 39 39 39 6 0 11 7 11 15 0 8 4 15 8 15 5 0 19
10 32 23 14 12 28 21 32 19 5 -1 8 2 8 8 0 15 33 50 42 44 4 -3 8 0 8 5 0 16
32 51 42 45 4 -3 8 0 8 5 0 16 32 51 42 45 4 -3 8 0 8 7 0 6 16 26 35 45 19
18 35 37 35 43 0 6 7 11 15 11 8 0 15 5 15 11 0 6 22 33 49 60 27 26 51 55 55
64 3 9 10 13 16 10 5 -3 10 1 10 9 0 9 4 16 9 16 5 0 11 9 14 21 3 12 10 18
16 14 6 -3 11 1 11 9 0 9 5 16 10 16 6 0 10 7 10 15 0 8 7 15 15 15 8 0 15 7
15 16 0 9 11 27 25 40 14 13 25 28 25 34 0 5 4 10 9 10 5 0 13 9 16 20 4 11
11 18 16 15 5 -4 9 1 9 11 0 9 11 27 25 40 14 13 25 27 25 32 0 5 11 21 25 36
14 15 25 30 25 34 0 4 11 19 25 34 14 15 25 34 25 43 0 8 7 15 15 15 8 0 15 9
15 20 0 11 4 20 9 20 5 0 11 9 14 21 3 12 10 18 16 14 7 -3 11 2 11 14 0 12 5
21 10 21 6 0 10 9 10 20 0 11 7 20 15 20 8 0 15 8 15 19 0 10 11 30 25 45 14
15 25 34 25 42 0 7 5 14 10 14 6 0 10 9 10 20 0 11 7 23 15 26 8 4 15 15 15
25 0 10 4 19 9 19 5 0 11 10 13 23 2 12 9 21 16 20 7 -2 12 8 12 22 0 14 4 25
10 25 5 0 12 11 16 25 3 14 10 25 15 25 5 0 9 9 9 20 0 11 7 23 15 26 8 4 15
15 15 25 0 10 4 19 9 19 5 0 11 10 13 23 2 12 9 21 16 20 7 -2 12 9 12 27 0
17 4 30 9 30 5 0 11 10 13 23 2 12 9 21 16 20 7 -2 12 9 12 27 0 17 5 30 10
30 6 0 10 9 10 20 0 11 7 23 15 26 9 4 15 19 15 35 0 16 4 29 9 29 5 0 11 12
13 28 2 15 8 26 16 25 7 -2 12 8 12 27 0 17 4 30 9 30 5 0 11 12 13 28 2 15 8
26 16 25 7 -2 12 8 12 26 0 17 4 32 9 35 4 3 11 19 15 36 3 18 10 29 16 25 6
-4 10 8 10 29 0 19 4 37 9 40 4 3 11 19 15 36 3 18 10 29 16 25 6 -4 10 7 10
25 0 17 7 38 15 46 8 9 15 26 15 40 0 13 5 24 10 24 6 0 10 16 10 35 0 22 6
38 15 41 9 4 15 19 15 40 0 19 4 34 9 34 6 0 11 15 13 33 2 19 8 31 16 30 8
-2 12 11 12 42 0 25 4 45 9 45 6 0 11 19 13 43 2 27 7 41 16 40 8 -2 12 11 12
42 0 25 5 45 10 45 6 0 10 13 10 29 0 37 10 62 21 55 5 -3 9 15 9 40 0 25 5
46 10 46 6 0 10 13 10 29 0 50 12 94 21 79 5 -8 9 12 9 50 0 34 4 62 10 62 6
0 10 20 10 45 0 31 5 47 15 51 10 4 15 20 15 50 0 24 4 52 10 62 5 9 12 44 15
76 4 37 10 54 15 46 5 -8 10 18 13 66 3 43 8 97 12 119 3 22 8 55 11 73 3 18
9 30 14 27 5 -3 10 27 12 67 2 52 7 72 16 71 9 -2 12 20 12 87 0 53 4 90 10
90 6 0 10 41 10 103 0 56 3 113 7 126 6 23 7 23 14 5 4 -10 8 38 8 109 1 77 5
127 11 127 6 0 10 50 11 128 0 70 4 136 9 147 6 15 9 16 11 5 5 -23 19 482 24
874 4 232 2 353 -5 360 -6 6 -10 116 -11 301 0 159 -4 281 -8 271 -7 -18 -8
-18 -14 5 -4 13 -7 86 -7 162 0 84 -4 137 -10 137 -6 0 -10 58 -11 153 -1 83
-4 141 -8 127 -7 -24 -7 -24 -14 9 -4 18 -7 87 -7 153 0 73 -4 117 -10 113 -5
-3 -10 26 -12 72 l-3 78 -37 3 -38 3 0 -583z"/>
</g>
</svg>
